<svg xmlns="http://www.w3.org/2000/svg" width="256" height="256" viewBox="0 0 100 100"><rect width="100" height="100" rx="20" fill="#7d6ee7"></rect><path d="M56.92 11.26L56.92 11.26Q57.56 11.01 58.89 10.69Q60.22 10.38 61.62 10.38L61.62 10.38Q67.21 10.38 67.21 15.07L67.21 15.07L67.21 69.43Q67.21 75.15 65.56 79.02Q63.91 82.89 61.05 85.24Q58.19 87.59 54.45 88.61Q50.70 89.62 46.63 89.62L46.63 89.62Q39.40 89.62 36.09 87.91Q32.79 86.19 32.79 83.40L32.79 83.40Q32.79 81.62 33.55 80.35Q34.32 79.08 34.95 78.45L34.95 78.45Q36.86 79.34 39.52 80.10Q42.19 80.86 45.11 80.86L45.11 80.86Q50.83 80.86 53.87 78.13Q56.92 75.40 56.92 68.92L56.92 68.92L56.92 11.26Z" fill="#fff"></path></svg>